<svg width="104" height="40" viewBox="0 0 104 40" fill="none" xmlns="http://www.w3.org/2000/svg">
<path d="M47.7663 35.2381H50.5006V24.9238H47.7663V35.2381ZM47.7663 23.3153H50.5006V20.8624H47.7663V23.3153Z" fill="white"/>
<path d="M52.2626 38.6159H54.9969V34.072H55.0373C55.6203 34.9566 56.5652 35.5397 58.0128 35.5397C60.6668 35.5397 62.4763 33.4286 62.4763 30.091C62.4763 26.874 60.7271 24.6423 57.9927 24.6423C56.5854 24.6423 55.6203 25.3058 54.9567 26.2105H54.8965V24.9238H52.2626V38.6159ZM57.4298 33.2677C55.8012 33.2677 54.9366 32.0413 54.9366 30.1714C54.9366 28.3217 55.6203 26.8539 57.3293 26.8539C59.0182 26.8539 59.7017 28.2211 59.7017 30.1714C59.7017 32.1217 58.8171 33.2677 57.4298 33.2677Z" fill="white"/>
<path d="M67.9309 35.5397C70.5044 35.5397 72.2738 34.2931 72.2738 32.2222C72.2738 29.8095 70.3638 29.327 68.6347 28.9651C67.1669 28.6635 65.7997 28.583 65.7997 27.6984C65.7997 26.9545 66.5033 26.5523 67.569 26.5523C68.7351 26.5523 69.4389 26.9545 69.5594 28.0603H72.0325C71.8314 25.9894 70.3235 24.6423 67.6092 24.6423C65.2568 24.6423 63.407 25.7079 63.407 27.9396C63.407 30.1915 65.2166 30.6942 67.0663 31.0561C68.4737 31.3375 69.7806 31.4381 69.7806 32.4233C69.7806 33.1471 69.097 33.6095 67.8906 33.6095C66.6642 33.6095 65.8197 33.0868 65.6388 31.9005H63.1054C63.2663 34.0921 64.9352 35.5397 67.9309 35.5397Z" fill="white"/>
<path d="M82.6554 35.2381V24.9238H79.9211V30.8751C79.9211 32.2423 79.1369 33.2074 77.8502 33.2074C76.6841 33.2074 76.1412 32.5439 76.1412 31.3375V24.9238H73.4268V31.8C73.4268 34.0518 74.7137 35.5196 77.0058 35.5196C78.4534 35.5196 79.2576 34.9767 79.9613 34.0317H80.0217V35.2381H82.6554Z" fill="white"/>
<path d="M84.4241 35.2381H87.1586V29.2465C87.1586 27.8793 87.9025 26.9947 89.0083 26.9947C90.0136 26.9947 90.5967 27.5978 90.5967 28.764V35.2381H93.3311V29.2465C93.3311 27.8793 94.0348 26.9947 95.1808 26.9947C96.1861 26.9947 96.7692 27.5978 96.7692 28.764V35.2381H99.5036V28.3016C99.5036 26.0497 98.2772 24.6423 96.1058 24.6423C94.7989 24.6423 93.7132 25.3259 93.0095 26.4518H92.9692C92.4665 25.3661 91.4211 24.6423 90.1142 24.6423C88.6867 24.6423 87.6814 25.3661 87.1183 26.3111H87.0581V24.9238H84.4241V35.2381Z" fill="white"/>
<path d="M47.8064 17.572H50.5408V3.19629H47.8064V17.572Z" fill="white"/>
<path d="M57.2268 17.8736C60.4237 17.8736 62.6152 15.5011 62.6152 12.4249C62.6152 9.3487 60.4237 6.97621 57.2268 6.97621C54.03 6.97621 51.8384 9.3487 51.8384 12.4249C51.8384 15.5011 54.03 17.8736 57.2268 17.8736ZM57.2268 15.7826C55.5379 15.7826 54.6131 14.4355 54.6131 12.4249C54.6131 10.4143 55.5379 9.04712 57.2268 9.04712C58.8956 9.04712 59.8406 10.4143 59.8406 12.4249C59.8406 14.4355 58.8956 15.7826 57.2268 15.7826Z" fill="white"/>
<path d="M68.4303 21.0906C69.9584 21.0906 71.2853 20.7287 72.1498 19.9244C72.9138 19.2207 73.3764 18.2355 73.3764 16.7879V7.25769H70.7424V8.34341H70.7022C70.0789 7.47885 69.1339 6.97621 67.8472 6.97621C65.2335 6.97621 63.3836 8.94659 63.3836 12.0228C63.3836 15.1392 65.6356 16.9487 67.9277 16.9487C69.2346 16.9487 70.0186 16.426 70.6218 15.7424H70.6822V16.8683C70.6822 18.2757 69.9383 19.0196 68.3901 19.0196C67.1234 19.0196 66.5404 18.517 66.3192 17.8736H63.6049C63.8864 19.8842 65.6155 21.0906 68.4303 21.0906ZM68.3901 14.7572C66.9827 14.7572 66.0577 13.7318 66.0577 11.9826C66.0577 10.2535 66.9827 9.16775 68.3699 9.16775C70.0186 9.16775 70.8228 10.4545 70.8228 11.9625C70.8228 13.4905 70.1192 14.7572 68.3901 14.7572Z" fill="white"/>
<path d="M80.0228 17.8736C83.2196 17.8736 85.4111 15.5011 85.4111 12.4249C85.4111 9.3487 83.2196 6.97621 80.0228 6.97621C76.826 6.97621 74.6343 9.3487 74.6343 12.4249C74.6343 15.5011 76.826 17.8736 80.0228 17.8736ZM80.0228 15.7826C78.3338 15.7826 77.409 14.4355 77.409 12.4249C77.409 10.4143 78.3338 9.04712 80.0228 9.04712C81.6916 9.04712 82.6366 10.4143 82.6366 12.4249C82.6366 14.4355 81.6916 15.7826 80.0228 15.7826Z" fill="white"/>
<path d="M87.8082 13.6313H99.6302V11.2789H87.8082V13.6313Z" fill="white"/>
<path d="M100.497 23.1717C100.497 22.709 100.872 22.3339 101.335 22.3339H103.01C103.473 22.3339 103.848 22.709 103.848 23.1717C103.848 23.6343 103.473 24.0094 103.01 24.0094H101.335C100.872 24.0094 100.497 23.6343 100.497 23.1717Z" fill="white"/>
<path fill-rule="evenodd" clip-rule="evenodd" d="M20.1518 0C31.1975 0 40.1518 8.9543 40.1518 20C40.1518 31.0457 31.1975 40 20.1518 40C9.10616 40 0.151855 31.0457 0.151855 20C0.151855 8.9543 9.10616 0 20.1518 0ZM19.4289 1.49659C17.1474 1.81769 14.9747 3.65108 13.2882 6.7174C12.799 7.60683 12.3576 8.58946 11.9729 9.65044C14.2661 9.07417 16.7852 8.73442 19.4289 8.68187V1.49659ZM10.2826 10.1308C10.7609 8.62958 11.3461 7.2484 12.0214 6.02065C12.8574 4.50059 13.8496 3.18795 14.9675 2.17977C8.88865 3.94523 4.09708 8.73679 2.33163 14.8157C3.3398 13.6978 4.65245 12.7056 6.17251 11.8696C7.40026 11.1943 8.78143 10.6091 10.2826 10.1308ZM9.80225 11.8211C9.22602 14.1143 8.88628 16.6334 8.83373 19.2771H1.64844C1.96955 16.9954 3.80294 14.8228 6.86926 13.1364C7.75869 12.6472 8.74132 12.2058 9.80225 11.8211ZM10.2798 19.2771C10.3395 16.392 10.7548 13.6834 11.442 11.2902C13.8352 10.603 16.5439 10.1876 19.4289 10.1279V13.2508C18.3526 16.0062 16.1574 18.2012 13.4019 19.2771H10.2798ZM8.83373 20.7229H1.64844C1.96955 23.0046 3.80294 25.1771 6.86926 26.8636C7.75869 27.3528 8.74132 27.7942 9.80225 28.1789C9.22602 25.8857 8.88628 23.3666 8.83373 20.7229ZM11.442 28.7098C10.7548 26.3166 10.3395 23.608 10.2798 20.7229H13.4019C16.1574 21.7988 18.3527 23.9938 19.4289 26.7492V29.8721C16.5439 29.8124 13.8352 29.397 11.442 28.7098ZM10.2826 29.8692C8.78143 29.3909 7.40026 28.8057 6.17251 28.1304C4.65245 27.2944 3.3398 26.3022 2.33163 25.1843C4.09708 31.2632 8.88865 36.0548 14.9675 37.8202C13.8496 36.812 12.8574 35.4994 12.0214 33.9793C11.3461 32.7516 10.7609 31.3704 10.2826 29.8692ZM19.4289 38.5034C17.1474 38.1823 14.9747 36.3489 13.2882 33.2826C12.799 32.3932 12.3576 31.4105 11.9729 30.3496C14.2661 30.9258 16.7852 31.2656 19.4289 31.3181V38.5034ZM25.3361 37.8202C26.4541 36.812 27.4462 35.4994 28.2823 33.9793C28.9575 32.7516 29.5427 31.3704 30.021 29.8692C31.5222 29.3909 32.9035 28.8057 34.1312 28.1304C35.6512 27.2944 36.964 26.3022 37.972 25.1843C36.2066 31.2632 31.415 36.0548 25.3361 37.8202ZM28.3307 30.3496C27.946 31.4105 27.5047 32.3932 27.0154 33.2826C25.3291 36.3489 23.1564 38.1823 20.8747 38.5034V31.3181C23.5184 31.2656 26.0375 30.9258 28.3307 30.3496ZM30.5014 28.1789C31.5623 27.7942 32.545 27.3528 33.4344 26.8636C36.5007 25.1771 38.3342 23.0046 38.6553 20.7229H31.4699C31.4174 23.3666 31.0777 25.8857 30.5014 28.1789ZM30.0239 20.7229C29.9642 23.608 29.5488 26.3166 28.8616 28.7098C26.4684 29.397 23.7598 29.8124 20.8747 29.8721V26.7515C21.9506 23.9951 24.1463 21.7991 26.9026 20.7229H30.0239ZM31.4699 19.2771H38.6553C38.3342 16.9954 36.5007 14.8228 33.4344 13.1364C32.545 12.6472 31.5623 12.2058 30.5014 11.8211C31.0777 14.1143 31.4174 16.6334 31.4699 19.2771ZM28.8616 11.2902C29.5488 13.6834 29.9642 16.392 30.0239 19.2771H26.9026C24.1463 18.2009 21.9506 16.0049 20.8747 13.2485V10.1279C23.7598 10.1876 26.4684 10.603 28.8616 11.2902ZM30.021 10.1308C31.5222 10.6091 32.9035 11.1943 34.1312 11.8696C35.6512 12.7056 36.964 13.6978 37.972 14.8157C36.2066 8.73679 31.415 3.94523 25.3361 2.17977C26.4541 3.18795 27.4462 4.50059 28.2823 6.02065C28.9575 7.2484 29.5427 8.62958 30.021 10.1308ZM20.8747 1.49659C23.1564 1.81769 25.3291 3.65108 27.0154 6.7174C27.5047 7.60684 27.946 8.58946 28.3307 9.65044C26.0375 9.07417 23.5184 8.73442 20.8747 8.68187V1.49659Z" fill="white"/>
</svg>
